<?xml version="1.0" encoding="utf-8"?>
<!-- Generator: Adobe Illustrator 22.0.1, SVG Export Plug-In . SVG Version: 6.00 Build 0)  -->
<svg version="1.1" id="Signature_Templates" xmlns="http://www.w3.org/2000/svg" xmlns:xlink="http://www.w3.org/1999/xlink"
	 x="0px" y="0px" viewBox="0 0 608 148" style="enable-background:new 0 0 608 148;" xml:space="preserve">
<style type="text/css">
	.st0{fill:#2E2D29;}
	.st1{fill:#8C1515;}
</style>
<g>
	<rect x="342.7" y="34.8" class="st0" width="2.4" height="70.8"/>
</g>
<g>
	<g>
		<path class="st1" d="M115.7,105.6c-10.2,0-11-7.8-11-10.1c0-2.8,0.8-7.7,7.3-10.1c6.7-2.5,8.2-2.8,12.8-4.2V80
			c0-2.2,0-2.8-0.4-4.2c-0.9-2.7-3.4-4.3-6.9-4.3c-5.1,0-7.2,3.9-7.2,3.9l-0.4,0.8l-1.9-1.1l0.2-0.6c0.9-2.9,4.6-7.9,12.7-7.9
			c5.3,0,8.7,1.5,10.8,4.7c1.6,2.6,1.7,6.1,1.7,9.8c0,3.2-0.1,6.9-0.1,9.8c0,2-0.1,3.7-0.1,4.8c0,2.7,0.4,4.7,2.6,4.7
			c0.6,0,0.9-0.1,1.2-0.4l0.6-0.5l1.2,1.4l-0.4,0.5c-2,2.5-4,4.2-7.4,4.2c-3,0-5.1-1.4-5.8-3.8C123.5,103.5,120.5,105.6,115.7,105.6
			z M124.7,85.8c-5,1.5-6.7,2.3-8.3,3.1c-2.2,1.1-3.3,3.3-3.3,5.9c0,2,0.7,5.5,5.6,5.5c1.6,0,3.9-0.3,5.9-1.7V85.8z"/>
	</g>
	<g>
		<g>
			<path class="st1" d="M53.3,105.5c-4.9,0-8.6-0.5-12.4-1.8l-0.6-0.2v-2.7c0-3.6-0.1-5.1-0.2-6.2l-0.1-1.9l2.2,0l0,0.8
				c0.1,1.7,0.7,3.4,1.7,4.5c1.6,1.8,5.3,2.9,8.7,2.9c7.2,0,10.5-2.7,10.5-8.6c0-5-3.1-7.1-7.4-10L55.3,82l-4.5-3
				c-6.3-4.2-9.5-7.5-9.5-14.1c0-3.2,1.2-13.9,17-13.9c6.5,0,11.5,0.9,11.7,0.9l0.7,0.1l0,0.7c0,0-0.1,2.1-0.1,4.3
				c0,1.8,0,3.3,0,4.9l0.1,1.2h-1.9l0-0.7c-0.1-2-0.7-3.5-1.8-4.6c-1.5-1.5-4.9-2.2-8.4-2.2c-8.4,0-9.3,4.3-9.3,7.5
				c0,4.4,2.3,5.9,7.2,9.2l5.7,3.8c4.9,3.2,9.4,6.3,9.4,14.4C71.5,104.1,58.8,105.5,53.3,105.5z"/>
		</g>
		<g>
			<path class="st1" d="M90.7,105.8c-5.8,0-9.1-2.1-10.5-6.7c-0.6-1.9-0.6-5.5-0.6-7.7c0-6,0.1-10.9,0.1-16.4l0-2.6h-5v-1.5l0.5-0.2
				c2.3-1,3.2-1.6,4.2-2.4c3.6-2.8,6.1-7.6,6.2-7.6l0.8-1.4h1.6v8.5H101v4.7H88.2v19.8c0,5.9,1.1,9.3,6.7,9.3c2.6,0,4.6-1,4.6-1
				l0.8-0.4l0.7,1.5l-0.3,0.4C100.5,102,97.6,105.8,90.7,105.8z"/>
		</g>
		<g>
			<path class="st1" d="M142,105.3v-1.8l0.7-0.1c0.6-0.1,2.2-0.3,3.3-1.6c1.2-1.3,1.2-4.5,1.2-10.9V80.2c0-4.6-0.1-6.6-0.7-7.6
				c-0.8-1.1-2.5-1.2-3.4-1.3c-0.1,0-0.2,0-0.3,0l-0.7-0.1V69l0.9,0.1c0.1,0,0.3,0,0.6,0c1.2,0,3.9-0.2,6.8-0.7
				c2.2-0.4,3.5-1.1,4-1.3l0.4-0.2l0.7,0.4v3c1.9-1.4,5.7-3.6,10.9-3.6c6.8,0,11.2,3.2,12.5,8.9c0.4,1.4,0.5,4.9,0.5,6.7v11
				c0,6.2,0.2,8,1.4,9.1c0.6,0.5,1.8,1,2.9,1.1l0.7,0.1v1.8l-1.9-0.1c-2.7-0.1-5-0.3-7.5-0.3c-2.8,0-5.2,0-8.6,0.3l-0.9,0.1v-1.7
				l0.7-0.1c1.5-0.2,2.5-0.6,3.1-1.3c1.2-1.2,1.3-4.1,1.4-6.6c0-0.4,0-0.9,0.1-1.3c0.1-1.4,0.1-4.4,0.1-6.5c0-2.8,0-5.7-0.3-8.6
				c-0.6-4.9-3.1-7.1-8-7.1c-3.4,0-5.5,0.8-7.1,1.6v19.8c0,6.2,0.3,8,1.4,9.1c0.6,0.5,1.8,1,2.9,1.1l0.7,0.1v1.8l-2-0.1
				c-2.6-0.1-4.9-0.3-7.2-0.3c-2.7,0-5.3,0-8.6,0.3L142,105.3z"/>
		</g>
		<g>
			<path class="st1" d="M189,105.3v-1.8l0.7-0.1c0.6,0,2.2-0.3,3.3-1.6c1.2-1.3,1.2-4.5,1.2-10.9V72.3h-4.9v-2.1l0.5-0.2
				c2.1-0.9,3.4-1.6,4.4-2.3c0-3.3,0.1-7.6,0.6-10c1.5-7.8,6.6-11.7,15.1-11.7c3.7,0,7.2,1.2,9.2,2.9l0.3,0.2l0.1,0.8l-3.7,5.2
				l-0.9,0l-0.2-0.5c-1.4-3.2-3.5-4.4-6.3-4.4c-1.2,0-2.8,0.4-3.8,1.4c-1.6,1.6-1.9,4.1-1.9,8.9v7.3h8.4v4.7h-8.4v20.9
				c0,5,0.2,7.4,0.8,8.4c1.1,1.6,4.3,1.7,5.2,1.7h0.8v2l-0.8,0c-4.1-0.2-7.2-0.3-9.5-0.3c-2.8,0-6,0-9.3,0.3L189,105.3z"/>
		</g>
		<g>
			<path class="st1" d="M232.3,105.9c-11.5,0-18.4-7.2-18.4-19.2c0-9.3,5-20.2,19.2-20.2c11.5,0,18.4,7.2,18.4,19.2
				C251.5,95.1,246.4,105.9,232.3,105.9z M232.8,70.9c-2.2,0-4,0.6-5.3,1.7c-3,2.5-4.6,7.2-4.6,13.7c0,2.5,0.5,15.2,9.7,15.2
				c2.2,0,4-0.6,5.3-1.7c3-2.5,4.6-7.2,4.6-13.7C242.5,83.6,242,70.9,232.8,70.9z"/>
		</g>
		<g>
			<path class="st1" d="M255.1,105.3v-1.9l0.7-0.1c0.6,0,2.2-0.3,3.3-1.6c1.2-1.3,1.2-4.4,1.2-10.8V80.2c0-4.6-0.1-6.6-0.7-7.6
				c-0.8-1.1-2.5-1.2-3.4-1.3c-0.1,0-0.2,0-0.3,0l-0.7-0.1v-2.3l0.8,0c0.1,0,0.4,0,0.6,0c1.2,0,3.9-0.1,6.8-0.7
				c1.8-0.3,3.4-0.8,4-1.1l0.4-0.2l0.7,0.4v3.3c1.8-1.7,4.7-3.5,8.7-3.5c2.6,0,4.8,0.7,6.3,2.1l0.3,0.2v1.2l-3.2,5.8h-1.5L279,76
				c-0.9-1.4-2.6-3-6.1-3c-1.6,0-2.9,0.4-4.1,1.2v19c0,5,0.2,7.3,0.8,8.3c1.1,1.6,4.3,1.7,5.2,1.7h0.8v2.1l-0.8,0
				c-4.1-0.2-7.2-0.3-9.5-0.3c-2.8,0-6,0-9.3,0.3L255.1,105.3z"/>
		</g>
		<g>
			<path class="st1" d="M314.3,105.8l-1-0.3v-3.2c-1.9,1.4-5.6,3.5-10.5,3.5c-10.3,0-17-7.2-17-18.3c0-3.7,0.7-7.2,2.1-10.1
				c3.2-6.8,9.7-10.8,18-10.8c3,0,5.7,0.4,7.4,0.7v-8c0-4.7-0.1-7.2-0.7-8.2c-0.8-1.1-2.4-1.2-3.3-1.3c-0.1,0-0.2,0-0.3,0l-0.7-0.1
				l0.2-1.7h0.8c0.2,0,4.5-0.4,8.1-1.1c1.5-0.2,3-0.6,3.7-0.9l0.4-0.1l0.6,0.4l0,0.4c-0.2,3.1-0.3,9.7-0.3,14.7v30.7
				c0,4.6,0.1,7.4,0.7,8.3c0.8,1.1,2.4,1.3,3.3,1.4c0.1,0,0.2,0,0.3,0l0.7,0v2h-0.8c-0.8,0-4.1,0.2-7.3,0.8
				c-1.8,0.3-3.2,0.6-3.8,0.9L314.3,105.8z M305.6,71.2c-7.3,0-10.9,5-10.9,15.4c0,4.2,1.2,13.9,12.1,13.9h0.4c1.3,0,3.8-0.2,6-1.5
				V73.7C312.5,73.1,310.2,71.2,305.6,71.2z"/>
		</g>
	</g>
</g>
<g>
	<g>
		<path class="st0" d="M360.3,49.3c0-8.8,4.8-14.2,11.8-14.2c6.9,0,11.8,5.4,11.8,14.2c0,8.9-4.9,14.4-11.8,14.4
			C365.1,63.7,360.3,58.2,360.3,49.3z M380.2,49.3c0-6.8-3.2-11.1-8.1-11.1c-4.9,0-8.1,4.2-8.1,11.1c0,6.9,3.2,11.3,8.1,11.3
			C376.9,60.7,380.2,56.2,380.2,49.3z"/>
		<path class="st0" d="M389.6,42.8h2.9l0.3,2.9h0.1c1.9-1.9,4-3.4,6.8-3.4c4.3,0,6.2,2.8,6.2,8v12.9h-3.4V50.8
			c0-3.8-1.2-5.5-3.9-5.5c-2.1,0-3.5,1.1-5.6,3.2v14.8h-3.4V42.8z"/>
		<path class="st0" d="M412.5,33.3h3.4v26c0,1.1,0.5,1.5,1,1.5c0.2,0,0.4,0,0.8-0.1l0.5,2.6c-0.5,0.2-1.1,0.3-2,0.3
			c-2.6,0-3.7-1.6-3.7-4.6V33.3z"/>
		<path class="st0" d="M422.3,36.4c0-1.3,1.1-2.2,2.4-2.2c1.3,0,2.4,0.9,2.4,2.2c0,1.3-1.1,2.2-2.4,2.2
			C423.3,38.6,422.3,37.7,422.3,36.4z M422.9,42.8h3.4v20.4h-3.4V42.8z"/>
		<path class="st0" d="M433,42.8h2.9l0.3,2.9h0.1c1.9-1.9,4-3.4,6.8-3.4c4.3,0,6.2,2.8,6.2,8v12.9h-3.4V50.8c0-3.8-1.2-5.5-3.9-5.5
			c-2.1,0-3.5,1.1-5.6,3.2v14.8H433V42.8z"/>
		<path class="st0" d="M463.7,42.3c5.2,0,8.1,3.7,8.1,9.6c0,0.7,0,1.4-0.1,1.9H458c0.3,4.4,2.9,7.2,6.8,7.2c1.9,0,3.6-0.6,5.1-1.6
			l1.2,2.3c-1.8,1.1-3.9,2.1-6.7,2.1c-5.5,0-9.8-4-9.8-10.7C454.6,46.4,459.1,42.3,463.7,42.3z M468.8,51.5c0-4.2-1.8-6.5-5-6.5
			c-2.9,0-5.5,2.4-5.9,6.5H468.8z"/>
		<path class="st0" d="M361.9,77.7h3.5v11.5h12.8V77.7h3.5v27.5h-3.5v-13h-12.8v13h-3.5V77.7z"/>
		<path class="st0" d="M388.1,78.4c0-1.3,1.1-2.2,2.4-2.2c1.3,0,2.4,0.9,2.4,2.2c0,1.3-1.1,2.2-2.4,2.2
			C389.1,80.6,388.1,79.7,388.1,78.4z M388.7,84.8h3.4v20.4h-3.4V84.8z"/>
		<path class="st0" d="M400.2,104.5v-0.2c-1-0.6-1.8-1.7-1.8-3.3c0-1.7,1.2-3.1,2.2-3.8v-0.2c-1.3-1.1-2.6-3.1-2.6-5.5
			c0-4.5,3.5-7.3,7.7-7.3c1.1,0,2.1,0.2,2.9,0.5h7.1v2.6h-4.2c1,0.9,1.7,2.5,1.7,4.2c0,4.4-3.3,7.1-7.5,7.1c-1,0-2.1-0.2-3.1-0.7
			c-0.7,0.6-1.3,1.3-1.3,2.4c0,1.3,0.8,2.2,3.6,2.2h3.9c4.7,0,7.1,1.5,7.1,4.9c0,3.8-4,7.1-10.3,7.1c-5,0-8.4-2-8.4-5.5
			C397.3,107.4,398.4,105.8,400.2,104.5z M406.2,112.3c3.9,0,6.5-2,6.5-4.2c0-1.9-1.5-2.5-4.1-2.5H405c-0.8,0-1.8-0.1-2.6-0.3
			c-1.5,1-2.1,2.3-2.1,3.4C400.3,110.9,402.5,112.3,406.2,112.3z M410,91.6c0-3-1.9-4.7-4.3-4.7c-2.4,0-4.3,1.8-4.3,4.7
			s2,4.9,4.3,4.9C408.1,96.5,410,94.6,410,91.6z"/>
		<path class="st0" d="M420.1,75.3h3.4v8.2l-0.1,4.2c1.9-1.8,4-3.4,6.8-3.4c4.3,0,6.2,2.8,6.2,8v12.9H433V92.8
			c0-3.8-1.2-5.5-3.9-5.5c-2.1,0-3.5,1.1-5.6,3.1v14.8h-3.4V75.3z"/>
		<path class="st0" d="M451.9,99.2c2,2.1,4.7,3.4,7.6,3.4c3.6,0,5.7-1.8,5.7-4.5c0-2.8-2-3.7-4.6-4.9l-3.9-1.7
			c-2.6-1.1-5.6-3.1-5.6-7.1c0-4.2,3.7-7.3,8.7-7.3c3.3,0,6.2,1.4,8.1,3.4l-1.9,2.3c-1.7-1.6-3.7-2.6-6.3-2.6c-3.1,0-5.1,1.6-5.1,4
			c0,2.6,2.4,3.6,4.6,4.6l3.9,1.7c3.2,1.4,5.7,3.3,5.7,7.3c0,4.4-3.6,7.9-9.4,7.9c-3.9,0-7.3-1.6-9.7-4.1L451.9,99.2z"/>
		<path class="st0" d="M482.7,84.3c2.7,0,4.6,1.1,6,2.4l-1.7,2.2c-1.2-1.1-2.5-1.8-4.1-1.8c-3.7,0-6.4,3.2-6.4,7.9
			c0,4.7,2.6,7.8,6.3,7.8c1.9,0,3.6-1,4.8-2.1l1.6,2.3c-1.8,1.6-4.2,2.6-6.6,2.6c-5.4,0-9.6-3.9-9.6-10.7
			C472.8,88.2,477.4,84.3,482.7,84.3z"/>
		<path class="st0" d="M493.5,75.3h3.4v8.2l-0.1,4.2c1.9-1.8,4-3.4,6.8-3.4c4.3,0,6.2,2.8,6.2,8v12.9h-3.4V92.8
			c0-3.8-1.2-5.5-3.9-5.5c-2.1,0-3.5,1.1-5.6,3.1v14.8h-3.4V75.3z"/>
		<path class="st0" d="M524.4,84.3c5,0,9.4,3.9,9.4,10.8c0,6.8-4.4,10.7-9.4,10.7c-5,0-9.4-3.9-9.4-10.7
			C515,88.2,519.5,84.3,524.4,84.3z M524.4,102.9c3.5,0,5.9-3.1,5.9-7.8c0-4.7-2.4-7.9-5.9-7.9c-3.5,0-5.9,3.2-5.9,7.9
			C518.6,99.7,521,102.9,524.4,102.9z"/>
		<path class="st0" d="M547.5,84.3c5,0,9.4,3.9,9.4,10.8c0,6.8-4.4,10.7-9.4,10.7c-5,0-9.4-3.9-9.4-10.7
			C538,88.2,542.5,84.3,547.5,84.3z M547.5,102.9c3.5,0,5.9-3.1,5.9-7.8c0-4.7-2.4-7.9-5.9-7.9c-3.5,0-5.9,3.2-5.9,7.9
			C541.6,99.7,544,102.9,547.5,102.9z"/>
		<path class="st0" d="M562.3,75.3h3.4v26c0,1.1,0.5,1.5,1,1.5c0.2,0,0.4,0,0.8-0.1l0.5,2.6c-0.5,0.2-1.1,0.3-2,0.3
			c-2.6,0-3.7-1.6-3.7-4.6V75.3z"/>
	</g>
</g>
</svg>
