<?xml version="1.0" encoding="UTF-8"?>
<svg width="130px" height="34px" viewBox="0 0 130 34" version="1.1" xmlns="http://www.w3.org/2000/svg" xmlns:xlink="http://www.w3.org/1999/xlink">
    <!-- Generator: Sketch 48.2 (47327) - http://www.bohemiancoding.com/sketch -->
    <title>Logo</title>
    <desc>Created with Sketch.</desc>
    <defs></defs>
    <g id="VerifyPayments-Pricing--Desktop-1170px--ver-2" stroke="none" stroke-width="1" fill="none" fill-rule="evenodd" transform="translate(-100.000000, -18.000000)">
        <g id="/Hero" transform="translate(0.000000, 15.000000)" fill="#62B552" fill-rule="nonzero">
            <g id="Top" transform="translate(100.000000, 0.000000)">
                <g id="Logo" transform="translate(0.000000, 3.000000)">
                    <g id="element" transform="translate(0.000000, 3.000000)">
                        <path d="M5.43554007,20.8559814 L0,15.4204413 L1.44947735,14.0011614 L2.86875726,12.5516841 L8.33449477,18.0174216 L13.7700348,23.4529617 L12.3507549,24.8722416 C11.5656214,25.6573751 10.931475,26.2915215 10.9012776,26.2915215 C10.8710801,26.2915215 8.42508711,23.8455285 5.43554007,20.8559814 Z" id="Shape"></path>
                        <path d="M16.3066202,20.8559814 L10.8710801,15.4204413 L12.3205575,14.0011614 L13.7398374,12.5516841 L17.7560976,16.5679443 L21.7723577,20.554007 L31.9488966,10.3774681 L42.0952381,0.170731707 L43.4843206,1.52961672 C44.2392567,2.2543554 44.8432056,3.00929152 44.8432056,3.19047619 C44.8432056,3.49245064 22.195122,26.2915215 21.8931475,26.2915215 C21.8025552,26.2915215 19.2961672,23.8455285 16.3066202,20.8559814 Z" id="Shape"></path>
                        <path d="M20.4436702,14.1219512 C19.7491289,13.42741 19.1753775,12.7026713 19.1753775,12.5516841 C19.1753775,12.3704994 21.8931475,9.53193961 25.2148664,6.21022067 L31.2543554,0.200929152 L32.6132404,1.52961672 C33.3681765,2.2543554 33.9721254,2.94889663 33.9721254,3.03948897 C33.9721254,3.16027875 21.8327526,15.4808362 21.7723577,15.3902439 C21.7421603,15.3902439 21.1684088,14.786295 20.4436702,14.1219512 Z" id="Shape"></path>
                    </g>
                    <g id="typo" transform="translate(50.000000, 0.000000)">
                        <path d="M65.2938444,33.6097561 C65.0824623,33.5493612 64.9012776,33.0963995 64.9012776,32.6132404 C64.9012776,31.0731707 65.1126597,30.8617886 66.5319396,31.0127758 C68.253194,31.224158 69.1893148,30.3786295 70.1254355,27.7816492 L70.8501742,25.7886179 L67.7398374,18.2694541 C66.018583,14.1022067 64.6295006,10.5389082 64.5993031,10.3577236 C64.5993031,10.0859466 65.1126597,9.96515679 66.1997677,9.96515679 L67.8002323,9.96515679 L70.0650407,15.7026713 C71.2729384,18.873403 72.3902439,21.4401858 72.4808362,21.4401858 C72.5714286,21.4401858 73.6283391,18.9036005 74.775842,15.7932636 L76.9198606,10.116144 L78.4599303,10.0255517 C79.3658537,9.96515679 80,10.0557491 80,10.2369338 C80,10.8710801 71.8768873,31.224158 71.3031359,31.9790941 C70.4878049,33.126597 68.8873403,33.8211382 67.1660859,33.7909408 C66.3507549,33.7909408 65.475029,33.7003484 65.2938444,33.6097561 Z" id="Shape"></path>
                        <path d="M23.1986063,26.0603949 C22.7456446,26 21.6585366,25.5168409 20.7828107,24.9732869 C19.4541231,24.1881533 18.970964,23.6445993 18.1858304,22.1045296 C17.340302,20.504065 17.1893148,19.8397213 17.1893148,18.1788618 C17.1893148,15.5818815 17.5818815,14.1927991 18.7897793,12.6225319 C20.2392567,10.7200929 22.4738676,9.66318235 25.0708479,9.66318235 C29.6608595,9.66318235 32.1068525,12.0487805 32.7409988,17.1521487 L32.952381,18.7224158 L26.5807201,18.7224158 C22.3228804,18.7224158 20.2090592,18.8130081 20.2090592,19.0243902 C20.2090592,19.2055749 20.4204413,19.7793264 20.6922184,20.3228804 C22.3832753,23.7049942 25.825784,24.4599303 28.8455285,22.1347271 L30.2346109,21.1080139 L31.261324,21.8931475 C32.1370499,22.5574913 32.2578397,22.7688734 31.9558653,23.28223 C31.4727062,24.1881533 29.1173055,25.5772358 27.4262485,25.9396051 C25.9465738,26.271777 24.738676,26.3019744 23.1986063,26.0603949 Z M29.5702671,15.7932636 C29.5702671,14.8269454 28.3623693,13.2566783 27.3054588,12.8037166 C24.5272938,11.6562137 21.4773519,12.8641115 20.5412311,15.4912892 L20.2392567,16.3066202 L24.9198606,16.3066202 C29.1475029,16.3066202 29.5702671,16.2462253 29.5702671,15.7932636 Z" id="Shape"></path>
                        <path d="M3.17770035,18.4204413 C1.54703833,14.4343786 0.157955865,10.9012776 0.0673635308,10.5691057 C-0.0836236934,10.0255517 0.0673635308,9.96515679 1.54703833,9.96515679 L3.17770035,9.96515679 L5.56329849,15.883856 L7.91869919,21.8025552 L9.33797909,18.0882695 C10.1231127,16.0348432 11.1196283,13.3472706 11.57259,12.1695703 L12.4181185,9.96515679 L13.8977933,9.96515679 C14.8943089,9.96515679 15.3774681,10.0859466 15.3774681,10.3577236 C15.3472706,10.5389082 14.018583,14.0418118 12.4181185,18.1184669 L9.48896632,25.5168409 L7.79790941,25.6074332 L6.13704994,25.6980256 L3.17770035,18.4204413 Z" id="Shape"></path>
                        <path d="M36.5156794,18.7526132 C36.5156794,14.9477352 36.4250871,11.4146341 36.3344948,10.9012776 L36.1533101,9.96515679 L37.5121951,9.96515679 C38.8106852,9.96515679 38.9012776,10.0255517 39.0824623,10.9012776 L39.2938444,11.8373984 L39.9279907,11.2334495 C41.0754936,10.2067364 42.4947735,9.66318235 44.0952381,9.66318235 L45.6655052,9.66318235 L45.4541231,10.5993031 C45.3635308,11.1126597 45.2729384,11.7770035 45.2729384,12.0487805 C45.2729384,12.4715447 45.0011614,12.562137 43.7932636,12.562137 C41.981417,12.5319396 40.8641115,13.2566783 39.9883856,14.9779326 C39.5052265,15.9442509 39.3844367,16.970964 39.2938444,20.9268293 L39.1730546,25.6678281 L37.844367,25.6678281 L36.5156794,25.6678281 L36.5156794,18.7526132 Z" id="Shape"></path>
                        <polygon id="Shape" points="48.2926829 17.8164925 48.2926829 9.96515679 49.8025552 9.96515679 51.3124274 9.96515679 51.3124274 17.8164925 51.3124274 25.6678281 49.8025552 25.6678281 48.2926829 25.6678281"></polygon>
                        <path d="M57.3519164,19.0243902 L57.3519164,12.3809524 L55.6910569,12.3809524 L54.0301974,12.3809524 L54.0301974,11.1730546 L54.0301974,9.96515679 L55.6910569,9.96515679 L57.3519164,9.96515679 L57.3519164,7.85133566 C57.3519164,2.41579559 59.1033682,0 62.9988386,0 C65.0220674,0 65.3240418,0.271777003 65.0522648,1.78164925 C64.8408827,3.01974448 64.8408827,3.01974448 63.8141696,2.83855981 C61.2171893,2.3554007 60.3716609,3.47270616 60.3716609,7.39837398 L60.3716609,9.96515679 L62.1835075,9.96515679 L63.9953542,9.96515679 L63.9953542,11.1730546 L63.9953542,12.3809524 L62.1835075,12.3809524 L60.3716609,12.3809524 L60.3716609,19.0243902 L60.3716609,25.6678281 L58.8617886,25.6678281 L57.3519164,25.6678281 L57.3519164,19.0243902 Z" id="Shape"></path>
                        <path d="M48.4738676,5.58652729 C47.7793264,4.86178862 47.6283391,4.01626016 48.0511034,3.11033682 C48.3832753,2.41579559 48.6852497,2.23461092 49.7119628,2.17421603 C50.7084785,2.11382114 51.0406504,2.20441347 51.4332172,2.77816492 C52.097561,3.71428571 52.0371661,4.71080139 51.3124274,5.43554007 C50.5876887,6.16027875 49.1382114,6.22067364 48.4738676,5.58652729 Z" id="Shape"></path>
                    </g>
                </g>
            </g>
        </g>
    </g>
</svg>